<svg width="507" height="469" viewBox="0 0 507 469" fill="none" xmlns="http://www.w3.org/2000/svg">
<path d="M156.783 347.858L51.723 380.673C50.6037 320.224 5.36301 273.585 4.24634 213.145L109.306 180.331C110.423 240.771 155.698 287.398 156.783 347.858Z" fill="#A48AFB"/>
<path opacity="0.7" d="M156.783 347.858L51.723 380.673C50.6037 320.224 5.36301 273.585 4.24634 213.145L109.306 180.331C110.423 240.771 155.698 287.398 156.783 347.858Z" fill="white"/>
<path d="M107.03 219.218L59.5581 234.045C59.4351 234.084 59.3026 234.069 59.1897 234.005C59.0769 233.941 58.9929 233.832 58.9563 233.703C58.9197 233.574 58.9335 233.435 58.9946 233.316C59.0557 233.198 59.1591 233.11 59.2821 233.071L106.754 218.244C106.877 218.205 107.01 218.22 107.122 218.284C107.235 218.348 107.319 218.457 107.356 218.586C107.392 218.715 107.379 218.854 107.318 218.973C107.257 219.091 107.153 219.179 107.03 219.218Z" fill="#263238"/>
<path d="M110.064 229.055L62.592 243.882C62.4674 243.919 62.3342 243.904 62.2192 243.842C62.1043 243.779 62.0162 243.673 61.9728 243.545C61.9514 243.484 61.9423 243.419 61.946 243.353C61.9497 243.288 61.966 243.224 61.9941 243.166C62.0222 243.107 62.0613 243.056 62.1092 243.014C62.157 242.972 62.2125 242.94 62.2723 242.922L109.744 228.094C109.87 228.057 110.004 228.071 110.12 228.133C110.236 228.195 110.326 228.3 110.372 228.428C110.393 228.491 110.401 228.557 110.396 228.622C110.391 228.688 110.374 228.752 110.345 228.81C110.316 228.869 110.277 228.921 110.228 228.963C110.18 229.005 110.124 229.036 110.064 229.055Z" fill="#263238"/>
<path d="M113.497 238.811L24.2409 266.69C24.1136 266.726 23.9783 266.712 23.8598 266.652C23.7412 266.592 23.6473 266.489 23.5953 266.361C23.5717 266.302 23.5604 266.237 23.562 266.173C23.5636 266.108 23.5782 266.045 23.6049 265.986C23.6315 265.928 23.6695 265.876 23.7165 265.834C23.7634 265.792 23.8183 265.761 23.8774 265.743L113.133 237.865C113.26 237.827 113.395 237.84 113.513 237.902C113.63 237.963 113.722 238.068 113.77 238.196C113.794 238.255 113.805 238.318 113.804 238.382C113.802 238.446 113.788 238.509 113.763 238.567C113.737 238.625 113.7 238.676 113.654 238.718C113.609 238.761 113.555 238.792 113.497 238.811Z" fill="#263238"/>
<path d="M144.982 321.417L55.7 349.303C55.6399 349.324 55.5765 349.331 55.5137 349.324C55.4509 349.317 55.3902 349.297 55.3353 349.264C55.2804 349.231 55.2325 349.187 55.1947 349.134C55.1569 349.081 55.13 349.02 55.1157 348.956C55.0877 348.823 55.1088 348.684 55.1746 348.567C55.2404 348.45 55.3461 348.364 55.4704 348.325L144.726 320.447C144.785 320.427 144.848 320.42 144.909 320.426C144.971 320.433 145.03 320.453 145.084 320.485C145.138 320.517 145.185 320.561 145.222 320.613C145.259 320.665 145.285 320.724 145.299 320.788C145.331 320.915 145.316 321.05 145.257 321.167C145.198 321.283 145.1 321.372 144.982 321.417Z" fill="#263238"/>
<path d="M88.8768 357.468L58.7398 366.881C58.6825 366.9 58.6217 366.906 58.5621 366.897C58.5025 366.888 58.4456 366.865 58.3959 366.829C58.3461 366.794 58.3049 366.746 58.2754 366.691C58.2458 366.636 58.2288 366.575 58.2255 366.511C58.2131 366.37 58.2463 366.229 58.3197 366.11C58.393 365.991 58.5023 365.901 58.6301 365.855L88.7409 356.45C88.7981 356.43 88.8589 356.425 88.9186 356.434C88.9782 356.443 89.0351 356.466 89.0848 356.502C89.1345 356.537 89.1757 356.585 89.2053 356.64C89.2348 356.695 89.2519 356.756 89.2551 356.82C89.2675 356.956 89.2373 357.093 89.1691 357.21C89.1008 357.327 88.9983 357.417 88.8768 357.468Z" fill="#263238"/>
<path d="M148.328 338.899L118.217 348.304C118.16 348.324 118.099 348.329 118.04 348.32C117.98 348.312 117.923 348.288 117.873 348.253C117.824 348.217 117.782 348.17 117.753 348.115C117.723 348.059 117.706 347.998 117.703 347.935C117.689 347.793 117.721 347.651 117.795 347.532C117.869 347.412 117.979 347.323 118.108 347.278L148.218 337.873C148.276 337.854 148.336 337.848 148.396 337.857C148.456 337.866 148.513 337.889 148.562 337.925C148.612 337.961 148.653 338.008 148.683 338.063C148.712 338.118 148.729 338.18 148.733 338.243C148.745 338.384 148.712 338.525 148.639 338.644C148.565 338.764 148.456 338.853 148.328 338.899Z" fill="#263238"/>
<path d="M38.7789 227.04C39.9583 231.201 37.7085 234.724 32.9569 236.208L29.3692 237.329L30.8297 242.482L26.7082 243.77L21.4102 225.075L29.1194 222.667C33.871 221.183 37.5891 222.842 38.7789 227.04ZM34.6049 228.344C34.0217 226.286 32.4031 225.481 29.8916 226.266L26.5314 227.315L28.3695 233.801L31.7297 232.752C34.2586 231.962 35.1802 230.374 34.6049 228.344Z" fill="#A48AFB"/>
<path d="M48.0064 248.748L41.8718 243.604L39.4833 251.41L34.7492 252.889L38.6438 241.322L29.7837 234.09L34.4478 232.633L40.2613 237.417L42.5683 230.097L47.0224 228.706L43.3686 239.677L52.7492 247.266L48.0064 248.748Z" fill="#A48AFB"/>
<path d="M31.629 271.151C31.9205 272.18 31.3677 273.052 30.1864 273.421L29.3113 273.695L29.6732 274.972L28.6407 275.294L27.3389 270.701L29.2466 270.105C30.4045 269.653 31.3218 270.067 31.629 271.151ZM30.5964 271.473C30.4532 270.968 30.0523 270.763 29.431 270.957L28.5559 271.231L29.0115 272.838L29.8866 272.565C30.4598 272.336 30.7266 271.933 30.5964 271.473Z" fill="#263238"/>
<path d="M34.1848 269.583L34.4451 270.502L34.2176 270.573C34.0964 270.61 33.984 270.674 33.8873 270.759C33.7907 270.844 33.712 270.95 33.6562 271.069C33.6004 271.188 33.5687 271.318 33.5631 271.45C33.5575 271.583 33.5781 271.715 33.6237 271.838L34.1001 273.52L33.0938 273.834L32.0863 270.279L33.0226 269.986L33.1554 270.455C33.2477 270.233 33.3894 270.039 33.5686 269.887C33.7478 269.735 33.9591 269.631 34.1848 269.583Z" fill="#263238"/>
<path d="M38.6281 270.505L36.0729 271.303C36.1827 271.513 36.3632 271.671 36.5789 271.748C36.7945 271.825 37.0298 271.815 37.2385 271.719C37.4023 271.679 37.5561 271.602 37.6899 271.495C37.8236 271.388 37.9343 271.252 38.0146 271.097L38.7089 271.53C38.5204 271.881 38.2418 272.17 37.9049 272.363C37.5679 272.557 37.1861 272.647 36.8027 272.624C36.4193 272.601 36.0497 272.466 35.7358 272.234C35.4219 272.001 35.1764 271.681 35.027 271.31C34.9572 271.064 34.9351 270.806 34.9621 270.551C34.9891 270.296 35.0647 270.049 35.1842 269.825C35.3038 269.601 35.4649 269.405 35.6581 269.247C35.8513 269.09 36.0726 268.975 36.3089 268.91C36.5385 268.826 36.7819 268.794 37.0239 268.815C37.2658 268.836 37.501 268.91 37.7144 269.031C37.9279 269.152 38.1151 269.319 38.264 269.52C38.413 269.722 38.5205 269.953 38.5797 270.2C38.597 270.295 38.6134 270.42 38.6281 270.505ZM35.8836 270.702L37.5549 270.18C37.4465 270.01 37.2891 269.881 37.1058 269.812C36.9225 269.743 36.7229 269.737 36.5361 269.795C36.3494 269.853 36.1853 269.973 36.0679 270.136C35.9505 270.299 35.8859 270.498 35.8836 270.702Z" fill="#263238"/>
<path d="M39.2968 271.555L39.4184 270.707C39.8356 270.825 40.2758 270.819 40.69 270.69C41.145 270.548 41.2835 270.365 41.2263 270.163C41.0622 269.584 39.1786 270.802 38.7803 269.397C38.5902 268.726 39.0324 268.068 40.0212 267.759C40.4709 267.608 40.9491 267.575 41.4136 267.664L41.2893 268.503C40.9436 268.417 40.582 268.429 40.2425 268.54C39.805 268.677 39.6541 268.884 39.7062 269.068C39.878 269.674 41.7538 268.428 42.1574 269.852C42.3422 270.504 41.8913 271.165 40.8762 271.482C40.3652 271.653 39.8202 271.678 39.2968 271.555Z" fill="#263238"/>
<path d="M42.3075 269.036C42.235 268.783 42.2132 268.517 42.2434 268.255C42.2736 267.992 42.3551 267.739 42.4829 267.512C42.6107 267.284 42.7819 267.086 42.9859 266.932C43.1899 266.777 43.4222 266.668 43.6682 266.612C43.9732 266.487 44.3069 266.463 44.6253 266.542C44.9436 266.621 45.2316 266.8 45.4511 267.055L44.8096 267.715C44.6947 267.593 44.5506 267.505 44.3924 267.461C44.2342 267.417 44.0677 267.419 43.9103 267.466C43.662 267.543 43.4532 267.721 43.3298 267.961C43.2065 268.2 43.1787 268.481 43.2526 268.741C43.3265 269.002 43.496 269.221 43.7238 269.351C43.9516 269.48 44.2191 269.509 44.4675 269.432C44.6267 269.387 44.7702 269.294 44.8807 269.166C44.9913 269.037 45.0642 268.878 45.0908 268.707L45.977 268.91C45.9223 269.248 45.773 269.561 45.5482 269.809C45.3234 270.058 45.0333 270.23 44.7148 270.305C44.4781 270.399 44.2252 270.441 43.9722 270.428C43.7193 270.415 43.4717 270.346 43.2453 270.227C43.0189 270.108 42.8186 269.94 42.6571 269.735C42.4957 269.53 42.3766 269.292 42.3075 269.036Z" fill="#263238"/>
<path d="M47.8543 265.315L48.1146 266.234L47.8959 266.302C47.7747 266.339 47.6622 266.403 47.5656 266.488C47.469 266.573 47.3903 266.679 47.3344 266.798C47.2786 266.917 47.2469 267.047 47.2413 267.179C47.2358 267.312 47.2564 267.444 47.302 267.567L47.7784 269.249L46.8159 269.549L45.8083 265.994L46.6834 265.721L46.8161 266.189C46.9083 265.966 47.051 265.769 47.232 265.617C47.4129 265.465 47.6265 265.361 47.8543 265.315Z" fill="#263238"/>
<path d="M48.0287 264.151C48.0079 264.069 48.0032 263.985 48.015 263.902C48.0267 263.818 48.0546 263.739 48.0969 263.667C48.1392 263.596 48.195 263.535 48.2609 263.487C48.3267 263.439 48.4013 263.406 48.4798 263.39C48.5525 263.357 48.6307 263.341 48.7097 263.342C48.7887 263.342 48.8666 263.36 48.9387 263.394C49.0109 263.428 49.0756 263.477 49.1289 263.538C49.1822 263.599 49.2229 263.671 49.2485 263.75C49.2969 263.92 49.2787 264.104 49.198 264.26C49.1173 264.417 48.9807 264.533 48.8182 264.584C48.6558 264.635 48.4808 264.616 48.3317 264.531C48.1827 264.446 48.0718 264.303 48.0235 264.132L48.0287 264.151ZM48.4558 265.187L49.4358 264.881L50.4434 268.436L49.4458 268.748L48.4558 265.187Z" fill="#263238"/>
<path d="M54.5416 265.215C54.6228 265.451 54.6567 265.701 54.6411 265.951C54.6255 266.201 54.5608 266.444 54.4511 266.666C54.3413 266.889 54.1889 267.085 54.0034 267.242C53.8179 267.399 53.6034 267.514 53.3734 267.58C53.1856 267.647 52.9864 267.672 52.7889 267.653C52.5913 267.634 52.3999 267.571 52.2272 267.468L52.6958 269.122L51.7158 269.428L50.3463 264.596L51.2826 264.303L51.3972 264.707C51.4873 264.51 51.6182 264.337 51.7804 264.2C51.9426 264.062 52.1319 263.965 52.3346 263.915C52.5608 263.838 52.7995 263.812 53.0359 263.836C53.2724 263.861 53.5013 263.937 53.7085 264.059C53.9157 264.181 54.0966 264.347 54.24 264.546C54.3833 264.745 54.486 264.973 54.5416 265.215ZM53.544 265.527C53.4815 265.352 53.3718 265.2 53.2283 265.09C53.0849 264.98 52.9139 264.916 52.7364 264.907C52.5589 264.897 52.3825 264.942 52.229 265.036C52.0755 265.13 51.9515 265.269 51.8722 265.436C51.7929 265.603 51.7618 265.791 51.7826 265.976C51.8035 266.162 51.8754 266.336 51.9896 266.48C52.1038 266.623 52.2552 266.727 52.4254 266.781C52.5955 266.835 52.777 266.836 52.9475 266.783C53.0678 266.746 53.1796 266.683 53.2757 266.598C53.3719 266.514 53.4504 266.409 53.5064 266.291C53.5624 266.174 53.5946 266.045 53.601 265.913C53.6075 265.782 53.5881 265.65 53.544 265.527Z" fill="#263238"/>
<path d="M57.8395 265.966C57.6452 266.202 57.3871 266.369 57.0996 266.447C56.9394 266.524 56.7646 266.562 56.5886 266.557C56.4125 266.552 56.2397 266.506 56.0834 266.421C55.9271 266.335 55.7913 266.214 55.6863 266.066C55.5813 265.917 55.5099 265.745 55.4776 265.564L55.0636 264.103L54.5386 264.267L54.3121 263.468L54.8371 263.304L54.5924 262.44L55.5725 262.134L55.8172 262.998L56.6923 262.724L56.9188 263.524L56.0437 263.797L56.4525 265.239C56.4618 265.303 56.4845 265.363 56.5191 265.417C56.5536 265.47 56.5991 265.514 56.6521 265.547C56.7051 265.579 56.7643 265.598 56.8254 265.604C56.8865 265.609 56.948 265.6 57.0053 265.577C57.147 265.535 57.2723 265.447 57.3626 265.325L57.8395 265.966Z" fill="#263238"/>
<path d="M56.9981 261.349C56.9773 261.267 56.9727 261.183 56.9844 261.1C56.9962 261.016 57.0241 260.937 57.0664 260.865C57.1087 260.794 57.1645 260.733 57.2303 260.685C57.2962 260.637 57.3707 260.604 57.4492 260.588C57.5216 260.557 57.5992 260.542 57.6773 260.544C57.7554 260.545 57.8324 260.564 57.9035 260.598C57.9746 260.631 58.0384 260.68 58.091 260.741C58.1435 260.802 58.1838 260.873 58.2092 260.95C58.2356 261.112 58.2046 261.278 58.1221 261.418C58.0397 261.557 57.9114 261.66 57.7616 261.707C57.6118 261.753 57.4508 261.741 57.3092 261.672C57.1676 261.602 57.055 261.481 56.9929 261.33L56.9981 261.349ZM57.4165 262.388L58.4053 262.079L59.4128 265.634L58.424 265.943L57.4165 262.388Z" fill="#263238"/>
<path d="M59.5635 263.646C59.4299 263.262 59.4092 262.844 59.5041 262.448C59.599 262.051 59.8052 261.694 60.096 261.422C60.3867 261.149 60.7486 260.975 61.1347 260.922C61.5209 260.868 61.9135 260.937 62.2617 261.12C62.6099 261.304 62.8976 261.593 63.0876 261.949C63.2777 262.306 63.3612 262.715 63.3274 263.122C63.2936 263.53 63.1441 263.917 62.8981 264.234C62.6522 264.551 62.3212 264.784 61.9481 264.901C61.7135 264.992 61.4636 265.032 61.2139 265.017C60.9642 265.003 60.7199 264.934 60.4964 264.817C60.2728 264.699 60.0746 264.534 59.9142 264.333C59.7537 264.132 59.6344 263.898 59.5635 263.646ZM62.285 262.796C62.2225 262.621 62.1128 262.469 61.9693 262.359C61.8259 262.249 61.6549 262.185 61.4774 262.176C61.2998 262.166 61.1235 262.211 60.97 262.305C60.8165 262.399 60.6925 262.538 60.6132 262.705C60.5339 262.872 60.5028 263.06 60.5236 263.245C60.5445 263.431 60.6164 263.605 60.7306 263.748C60.8447 263.892 60.9962 263.996 61.1664 264.05C61.3365 264.104 61.518 264.105 61.6885 264.052C61.8088 264.015 61.9206 263.952 62.0167 263.867C62.1129 263.783 62.1914 263.678 62.2474 263.56C62.3033 263.443 62.3356 263.314 62.342 263.182C62.3485 263.051 62.3291 262.919 62.285 262.796Z" fill="#263238"/>
<path d="M67.3224 260.945L67.9004 262.985L66.9466 263.283L66.4259 261.445C66.2645 260.876 65.9352 260.689 65.4977 260.825C65.0602 260.962 64.7786 261.38 64.953 261.995L65.4529 263.759L64.464 264.068L63.4565 260.513L64.4016 260.218L64.5187 260.631C64.6193 260.429 64.7592 260.252 64.9293 260.111C65.0994 259.97 65.2959 259.869 65.506 259.813C65.6961 259.743 65.8984 259.717 66.0988 259.738C66.2992 259.759 66.4927 259.826 66.6659 259.934C66.839 260.042 66.9875 260.189 67.101 260.363C67.2144 260.538 67.29 260.737 67.3224 260.945Z" fill="#263238"/>
<path d="M67.7068 259.812C67.6792 259.728 67.6684 259.64 67.6751 259.552C67.6818 259.465 67.7059 259.379 67.7459 259.302C67.7858 259.225 67.8406 259.157 67.907 259.103C67.9733 259.049 68.0496 259.01 68.131 258.989C68.2106 258.96 68.295 258.949 68.379 258.955C68.463 258.962 68.5447 258.987 68.6191 259.029C68.6935 259.07 68.7589 259.128 68.8112 259.197C68.8635 259.266 68.9016 259.346 68.9231 259.432C68.9497 259.516 68.9595 259.605 68.952 259.694C68.9446 259.782 68.9199 259.868 68.8796 259.946C68.8393 260.025 68.7842 260.093 68.7177 260.148C68.6512 260.203 68.5747 260.243 68.4929 260.266C68.4128 260.292 68.3286 260.302 68.2451 260.293C68.1617 260.284 68.0808 260.258 68.0073 260.215C67.9339 260.173 67.8694 260.115 67.8177 260.046C67.7661 259.976 67.7283 259.897 67.7068 259.812ZM68.3785 262.182C68.3509 262.099 68.3401 262.01 68.3468 261.923C68.3535 261.835 68.3776 261.75 68.4175 261.672C68.4575 261.595 68.5123 261.527 68.5787 261.473C68.645 261.419 68.7213 261.38 68.8027 261.359C68.8822 261.33 68.9667 261.319 69.0507 261.326C69.1347 261.332 69.2164 261.357 69.2908 261.399C69.3652 261.441 69.4306 261.498 69.4829 261.567C69.5352 261.636 69.5733 261.716 69.5948 261.802C69.6215 261.887 69.6314 261.976 69.6242 262.065C69.6169 262.154 69.5926 262.241 69.5526 262.32C69.5126 262.398 69.4579 262.468 69.3916 262.524C69.3254 262.58 69.249 262.621 69.1671 262.645C69.0864 262.672 69.0013 262.681 68.9171 262.672C68.8329 262.663 68.7513 262.636 68.6775 262.592C68.6036 262.549 68.539 262.49 68.4876 262.419C68.4361 262.349 68.399 262.268 68.3785 262.182Z" fill="#263238"/>
<path d="M148.541 233.601L131.508 233.26C128.428 233.199 125.883 235.77 125.824 239.004L124.712 300.325C124.653 303.559 127.103 306.23 130.183 306.291L147.216 306.632C150.296 306.694 152.84 304.122 152.899 300.889L154.012 239.568C154.07 236.334 151.621 233.663 148.541 233.601Z" fill="black"/>
<path opacity="0.8" d="M153.83 237.984C153.969 238.508 154.032 239.051 154.02 239.595L152.916 300.938C152.912 301.146 152.898 301.355 152.874 301.561C152.703 302.995 152.033 304.312 150.992 305.257C149.952 306.203 148.614 306.71 147.238 306.682L130.197 306.344C128.744 306.312 127.359 305.685 126.339 304.597C125.319 303.51 124.744 302.046 124.737 300.52L125.381 265.149L125.794 239.011C125.804 238.241 125.959 237.481 126.25 236.774C126.541 236.067 126.962 235.427 127.489 234.891C128.015 234.355 128.638 233.933 129.32 233.65C130.002 233.366 130.731 233.227 131.464 233.24L148.558 233.631C148.931 233.639 149.302 233.687 149.666 233.775C150.661 234.007 151.577 234.523 152.311 235.265C153.046 236.008 153.572 236.948 153.83 237.984Z" fill="white"/>
<g opacity="0.6">
<path opacity="0.5" d="M125.066 281.077L125.533 255.602L141.019 233.445L149.675 233.741C150.672 233.974 151.589 234.491 152.324 235.235C153.059 235.979 153.585 236.922 153.843 237.959L125.066 281.077Z" fill="white"/>
</g>
<path opacity="0.5" d="M125.691 245.374L125.793 239.012C125.804 238.242 125.959 237.482 126.25 236.775C126.54 236.068 126.961 235.428 127.488 234.892C128.015 234.356 128.637 233.934 129.319 233.651C130.001 233.367 130.73 233.228 131.463 233.241L134.021 233.292L125.691 245.374Z" fill="white"/>
<path d="M136.363 241.789C136.355 242.232 136.222 242.663 135.98 243.027C135.739 243.391 135.4 243.672 135.007 243.834C134.613 243.996 134.183 244.032 133.77 243.937C133.358 243.842 132.981 243.621 132.688 243.301C132.395 242.982 132.199 242.578 132.124 242.142C132.05 241.705 132.1 241.255 132.269 240.848C132.438 240.442 132.718 240.097 133.074 239.858C133.43 239.618 133.845 239.495 134.268 239.504C134.549 239.508 134.826 239.571 135.084 239.688C135.341 239.805 135.574 239.975 135.769 240.188C135.964 240.4 136.117 240.651 136.219 240.926C136.321 241.201 136.37 241.494 136.363 241.789Z" fill="#A48AFB"/>
<path d="M136.099 255.854C136.091 256.295 135.957 256.724 135.717 257.086C135.476 257.448 135.138 257.727 134.746 257.888C134.354 258.049 133.926 258.084 133.515 257.989C133.104 257.894 132.729 257.673 132.438 257.354C132.147 257.036 131.952 256.634 131.878 256.199C131.805 255.764 131.855 255.316 132.024 254.912C132.193 254.507 132.472 254.164 132.827 253.926C133.181 253.688 133.595 253.566 134.015 253.575C134.295 253.581 134.57 253.644 134.826 253.762C135.082 253.88 135.314 254.049 135.507 254.261C135.701 254.473 135.853 254.722 135.954 254.996C136.056 255.269 136.105 255.56 136.099 255.854Z" fill="#A48AFB"/>
<path d="M135.847 269.918C135.84 270.362 135.708 270.794 135.468 271.159C135.227 271.525 134.889 271.807 134.496 271.97C134.102 272.133 133.672 272.17 133.258 272.076C132.845 271.982 132.467 271.761 132.173 271.442C131.88 271.122 131.683 270.718 131.608 270.281C131.533 269.844 131.583 269.394 131.753 268.987C131.922 268.58 132.202 268.235 132.559 267.995C132.915 267.756 133.331 267.633 133.754 267.642C134.034 267.646 134.31 267.709 134.567 267.826C134.824 267.943 135.056 268.112 135.25 268.324C135.445 268.535 135.598 268.785 135.7 269.058C135.802 269.332 135.852 269.624 135.847 269.918Z" fill="#A48AFB"/>
<path d="M135.596 283.991C135.587 284.434 135.454 284.865 135.213 285.229C134.971 285.593 134.633 285.874 134.239 286.036C133.846 286.198 133.416 286.234 133.003 286.139C132.59 286.044 132.213 285.823 131.92 285.503C131.627 285.184 131.431 284.78 131.357 284.343C131.282 283.907 131.333 283.457 131.502 283.05C131.671 282.644 131.951 282.299 132.307 282.06C132.662 281.82 133.078 281.697 133.5 281.705C133.781 281.71 134.058 281.772 134.316 281.89C134.574 282.007 134.807 282.177 135.001 282.39C135.196 282.602 135.349 282.853 135.451 283.128C135.553 283.403 135.602 283.696 135.596 283.991Z" fill="#A48AFB"/>
<path d="M135.342 298.046C135.335 298.49 135.204 298.922 134.963 299.287C134.723 299.652 134.384 299.934 133.991 300.098C133.597 300.261 133.167 300.298 132.753 300.204C132.34 300.11 131.962 299.889 131.669 299.569C131.375 299.25 131.178 298.846 131.103 298.409C131.028 297.972 131.079 297.521 131.248 297.114C131.417 296.707 131.698 296.362 132.054 296.123C132.41 295.884 132.826 295.76 133.249 295.769C133.813 295.784 134.348 296.031 134.74 296.457C135.132 296.883 135.348 297.454 135.342 298.046Z" fill="#A48AFB"/>
<path d="M147.132 242.008C147.088 242.577 146.838 243.106 146.435 243.489C146.031 243.872 145.504 244.079 144.96 244.067C144.417 244.056 143.898 243.828 143.509 243.429C143.12 243.029 142.891 242.49 142.868 241.919C142.856 241.613 142.903 241.308 143.008 241.022C143.112 240.736 143.271 240.476 143.475 240.257C143.679 240.038 143.924 239.865 144.193 239.749C144.463 239.633 144.753 239.577 145.045 239.583C145.336 239.589 145.624 239.657 145.889 239.784C146.154 239.911 146.392 240.094 146.588 240.321C146.783 240.549 146.932 240.815 147.026 241.105C147.12 241.395 147.156 241.702 147.132 242.008Z" fill="#A48AFB"/>
<path d="M146.877 256.065C146.869 256.506 146.736 256.935 146.496 257.297C146.256 257.66 145.919 257.939 145.527 258.1C145.136 258.262 144.708 258.298 144.297 258.204C143.887 258.11 143.511 257.89 143.219 257.573C142.927 257.255 142.732 256.854 142.657 256.42C142.582 255.985 142.631 255.537 142.799 255.133C142.966 254.728 143.244 254.384 143.597 254.145C143.951 253.906 144.364 253.782 144.784 253.789C145.348 253.801 145.886 254.047 146.278 254.473C146.67 254.9 146.885 255.472 146.877 256.065Z" fill="#A48AFB"/>
<path d="M146.625 270.134C146.619 270.578 146.487 271.01 146.246 271.376C146.006 271.741 145.667 272.023 145.274 272.186C144.881 272.349 144.45 272.386 144.036 272.292C143.623 272.198 143.246 271.978 142.952 271.658C142.658 271.339 142.461 270.935 142.386 270.498C142.311 270.061 142.362 269.61 142.531 269.203C142.7 268.796 142.981 268.451 143.337 268.212C143.693 267.972 144.109 267.849 144.532 267.858C145.096 267.873 145.632 268.12 146.023 268.546C146.415 268.972 146.631 269.542 146.625 270.134Z" fill="#A48AFB"/>
<path d="M146.364 284.203C146.32 284.772 146.071 285.302 145.667 285.685C145.264 286.067 144.737 286.274 144.193 286.263C143.649 286.252 143.13 286.023 142.741 285.624C142.353 285.225 142.123 284.685 142.101 284.115C142.088 283.809 142.136 283.504 142.24 283.218C142.345 282.932 142.504 282.671 142.708 282.453C142.911 282.234 143.156 282.061 143.426 281.945C143.696 281.829 143.985 281.772 144.277 281.778C144.569 281.784 144.856 281.853 145.121 281.98C145.387 282.107 145.625 282.29 145.82 282.517C146.016 282.744 146.165 283.011 146.258 283.301C146.352 283.591 146.388 283.898 146.364 284.203Z" fill="#A48AFB"/>
<path d="M146.109 298.263C146.101 298.704 145.969 299.133 145.728 299.495C145.488 299.857 145.151 300.137 144.76 300.298C144.369 300.459 143.94 300.495 143.53 300.402C143.119 300.308 142.744 300.088 142.452 299.77C142.16 299.453 141.964 299.052 141.889 298.617C141.814 298.183 141.864 297.735 142.031 297.33C142.198 296.925 142.476 296.582 142.83 296.343C143.183 296.103 143.596 295.98 144.016 295.987C144.581 295.999 145.118 296.245 145.51 296.671C145.902 297.098 146.118 297.67 146.109 298.263Z" fill="#A48AFB"/>
<g opacity="0.4">
<path d="M136.363 241.794C136.355 242.237 136.222 242.668 135.98 243.032C135.739 243.396 135.4 243.677 135.007 243.839C134.613 244.001 134.183 244.037 133.77 243.942C133.358 243.847 132.981 243.626 132.688 243.306C132.395 242.987 132.199 242.583 132.124 242.146C132.05 241.71 132.1 241.26 132.269 240.853C132.438 240.447 132.718 240.102 133.074 239.863C133.43 239.623 133.845 239.5 134.268 239.508C134.549 239.513 134.826 239.575 135.084 239.693C135.341 239.81 135.574 239.98 135.769 240.193C135.964 240.405 136.117 240.656 136.219 240.931C136.321 241.206 136.37 241.499 136.363 241.794Z" fill="white"/>
<path d="M136.1 255.854C136.092 256.296 135.958 256.725 135.718 257.087C135.477 257.449 135.139 257.728 134.747 257.888C134.355 258.049 133.927 258.084 133.516 257.989C133.105 257.894 132.73 257.673 132.439 257.355C132.148 257.036 131.953 256.634 131.879 256.199C131.806 255.764 131.856 255.317 132.025 254.912C132.194 254.507 132.473 254.165 132.828 253.927C133.182 253.689 133.596 253.566 134.016 253.575C134.296 253.581 134.571 253.645 134.827 253.763C135.083 253.88 135.315 254.05 135.508 254.261C135.702 254.473 135.854 254.723 135.955 254.996C136.057 255.269 136.106 255.561 136.1 255.854Z" fill="white"/>
<path d="M135.848 269.921C135.841 270.365 135.709 270.797 135.469 271.162C135.228 271.527 134.89 271.809 134.497 271.973C134.103 272.136 133.673 272.173 133.259 272.079C132.846 271.985 132.468 271.764 132.174 271.444C131.881 271.125 131.684 270.721 131.609 270.284C131.534 269.847 131.584 269.396 131.754 268.989C131.923 268.582 132.203 268.237 132.56 267.998C132.916 267.759 133.332 267.635 133.755 267.644C134.035 267.649 134.311 267.712 134.568 267.829C134.825 267.946 135.057 268.115 135.251 268.326C135.446 268.538 135.599 268.788 135.701 269.061C135.803 269.335 135.853 269.627 135.848 269.921Z" fill="white"/>
<path d="M135.597 283.989C135.588 284.433 135.455 284.864 135.214 285.228C134.972 285.592 134.634 285.873 134.24 286.034C133.847 286.196 133.417 286.232 133.004 286.137C132.591 286.043 132.214 285.821 131.921 285.502C131.628 285.182 131.432 284.779 131.358 284.342C131.283 283.905 131.334 283.455 131.503 283.049C131.672 282.642 131.952 282.298 132.308 282.058C132.663 281.819 133.079 281.696 133.501 281.704C133.782 281.708 134.059 281.771 134.317 281.888C134.575 282.006 134.808 282.176 135.002 282.388C135.197 282.601 135.35 282.852 135.452 283.126C135.554 283.401 135.603 283.695 135.597 283.989Z" fill="white"/>
<path d="M135.341 298.05C135.334 298.494 135.203 298.926 134.962 299.292C134.722 299.657 134.383 299.939 133.99 300.102C133.596 300.266 133.166 300.302 132.752 300.208C132.339 300.114 131.961 299.894 131.668 299.574C131.374 299.255 131.177 298.851 131.102 298.414C131.027 297.977 131.078 297.526 131.247 297.119C131.416 296.712 131.697 296.367 132.053 296.128C132.409 295.888 132.825 295.765 133.248 295.774C133.812 295.789 134.347 296.036 134.739 296.462C135.131 296.888 135.347 297.458 135.341 298.05Z" fill="white"/>
</g>
<g opacity="0.4">
<path d="M147.13 242.007C147.086 242.576 146.836 243.106 146.433 243.489C146.029 243.872 145.502 244.078 144.959 244.067C144.415 244.056 143.896 243.827 143.507 243.428C143.118 243.029 142.889 242.489 142.866 241.919C142.854 241.613 142.901 241.308 143.006 241.022C143.11 240.736 143.269 240.476 143.473 240.257C143.677 240.038 143.922 239.865 144.191 239.749C144.461 239.633 144.751 239.576 145.043 239.582C145.334 239.588 145.622 239.657 145.887 239.784C146.152 239.911 146.39 240.094 146.586 240.321C146.781 240.548 146.93 240.815 147.024 241.105C147.118 241.395 147.154 241.702 147.13 242.007Z" fill="white"/>
<path d="M146.877 256.065C146.869 256.506 146.736 256.935 146.496 257.297C146.256 257.659 145.919 257.939 145.527 258.1C145.136 258.261 144.708 258.297 144.297 258.204C143.887 258.11 143.511 257.89 143.219 257.572C142.927 257.255 142.732 256.854 142.657 256.419C142.582 255.985 142.631 255.537 142.799 255.132C142.966 254.727 143.244 254.384 143.597 254.145C143.951 253.905 144.364 253.782 144.784 253.789C145.348 253.801 145.886 254.047 146.278 254.473C146.67 254.9 146.885 255.472 146.877 256.065Z" fill="white"/>
<path d="M146.625 270.134C146.619 270.578 146.487 271.01 146.246 271.375C146.006 271.741 145.667 272.023 145.274 272.186C144.881 272.349 144.45 272.386 144.036 272.292C143.623 272.198 143.246 271.977 142.952 271.658C142.658 271.338 142.461 270.934 142.386 270.497C142.311 270.06 142.362 269.61 142.531 269.203C142.7 268.796 142.981 268.451 143.337 268.211C143.693 267.972 144.109 267.849 144.532 267.858C145.096 267.872 145.632 268.119 146.023 268.545C146.415 268.971 146.631 269.542 146.625 270.134Z" fill="white"/>
<path d="M146.365 284.205C146.321 284.774 146.072 285.304 145.668 285.687C145.265 286.069 144.738 286.276 144.194 286.265C143.65 286.254 143.131 286.025 142.742 285.626C142.354 285.227 142.124 284.687 142.102 284.117C142.089 283.811 142.137 283.506 142.241 283.22C142.346 282.934 142.505 282.673 142.709 282.455C142.912 282.236 143.157 282.063 143.427 281.947C143.697 281.831 143.986 281.774 144.278 281.78C144.57 281.786 144.857 281.855 145.122 281.982C145.388 282.109 145.626 282.292 145.821 282.519C146.017 282.746 146.166 283.013 146.259 283.303C146.353 283.593 146.389 283.9 146.365 284.205Z" fill="white"/>
<path d="M146.11 298.263C146.102 298.704 145.97 299.133 145.729 299.495C145.489 299.857 145.152 300.137 144.761 300.298C144.37 300.459 143.941 300.495 143.531 300.401C143.12 300.307 142.745 300.088 142.453 299.77C142.161 299.453 141.965 299.051 141.89 298.617C141.815 298.183 141.865 297.735 142.032 297.33C142.199 296.925 142.477 296.581 142.831 296.342C143.184 296.103 143.597 295.979 144.017 295.986C144.582 295.998 145.119 296.244 145.511 296.671C145.903 297.098 146.119 297.67 146.11 298.263Z" fill="white"/>
</g>
<path opacity="0.7" d="M137.328 307.138L112.097 321.359C110.935 322.011 109.575 322.153 108.314 321.754C107.052 321.355 105.993 320.448 105.369 319.23L86.4747 282.273C85.252 279.893 84.7999 277.16 85.1867 274.487C85.5735 271.813 86.7781 269.345 88.6187 267.453C89.4184 266.628 90.3263 265.927 91.3149 265.371L104.351 258.029C105.725 257.252 107.233 256.767 108.786 256.603C110.34 256.438 111.909 256.597 113.404 257.07C114.899 257.543 116.29 258.321 117.498 259.36C118.706 260.399 119.707 261.677 120.444 263.123L139.347 300.078C139.657 300.68 139.85 301.341 139.917 302.022C139.983 302.704 139.921 303.392 139.733 304.048C139.546 304.704 139.237 305.314 138.824 305.845C138.411 306.375 137.903 306.814 137.328 307.138Z" fill="white"/>
<path d="M121.306 264.819L87.3291 283.968L101.355 311.397L135.332 292.247L121.306 264.819Z" fill="#A48AFB"/>
<path opacity="0.4" d="M121.306 264.819L87.3291 283.968L101.355 311.397L135.332 292.247L121.306 264.819Z" fill="white"/>
<path d="M84.631 258.216L103.132 247.79C103.431 247.621 103.758 247.516 104.096 247.481C104.434 247.445 104.775 247.48 105.099 247.582C105.424 247.685 105.727 247.854 105.989 248.08C106.252 248.305 106.47 248.583 106.63 248.896L108.509 252.57L85.4229 265.581L83.5272 261.874C83.3709 261.557 83.2755 261.212 83.2463 260.857C83.2172 260.502 83.255 260.145 83.3575 259.805C83.46 259.465 83.6252 259.15 83.8437 258.878C84.0622 258.605 84.3297 258.38 84.631 258.216Z" fill="#A48AFB"/>
<path opacity="0.7" d="M108.562 256.623C107.087 256.814 105.659 257.291 104.35 258.029L91.3492 265.36C90.3606 265.915 89.4527 266.616 88.6531 267.442L87.1963 264.587L106.966 253.412L108.562 256.623Z" fill="white"/>
<path opacity="0.3" d="M88.8746 269.731C88.8206 269.585 88.7238 269.461 88.5981 269.377C88.4724 269.292 88.3244 269.252 88.1754 269.262C88.0265 269.271 87.8844 269.331 87.7697 269.431C87.655 269.531 87.5736 269.667 87.5374 269.819C87.0262 271.77 87.126 273.842 87.8218 275.73C89.2316 278.889 106.171 312.848 108.768 318.047C108.986 318.473 109.336 318.808 109.761 318.996C110.042 319.115 110.345 319.165 110.647 319.142C110.95 319.119 111.243 319.023 111.504 318.862L112.452 318.276L90.3435 273.872C90.3435 273.872 89.5455 271.662 88.8746 269.731Z" fill="white"/>
<path d="M388.187 212.938C388.187 212.938 369.716 300.416 368.123 329.433C366.531 358.45 374.105 431.37 374.105 431.37L397.705 435.132L402.207 342.073L412.552 271.135C412.552 271.135 423.386 328.819 428.051 342.324C432.716 355.83 454.974 394.992 473.358 426.279L489.158 414.704C489.158 414.704 459.627 330.261 454.586 313.771C449.545 297.281 452.956 227.371 437.406 207.521L388.187 212.938Z" fill="#A48AFB"/>
<path opacity="0.4" d="M388.187 212.938C388.187 212.938 369.716 300.416 368.123 329.433C366.531 358.45 374.105 431.37 374.105 431.37L397.705 435.132L402.207 342.073L412.552 271.135C412.552 271.135 423.386 328.819 428.051 342.324C432.716 355.83 454.974 394.992 473.358 426.279L489.158 414.704C489.158 414.704 459.627 330.261 454.586 313.771C449.545 297.281 452.956 227.371 437.406 207.521L388.187 212.938Z" fill="white"/>
<path d="M392.577 455.585C392.464 456.288 380.225 453.629 380.225 453.629L379.397 441.541L379.071 436.801L391.611 435.697C391.611 435.697 391.824 439.309 392.05 443.447C392.301 448.864 392.715 455.172 392.577 455.585Z" fill="#B55B52"/>
<path opacity="0.2" d="M392 443.447L379.397 441.541L379.071 436.801L391.611 435.697C391.611 435.697 391.774 439.309 392 443.447Z" fill="black"/>
<path d="M371.258 457.879L370.756 457.189C370.606 456.976 366.995 451.922 367.521 449.439C367.57 449.198 367.672 448.97 367.82 448.773C367.967 448.576 368.156 448.414 368.374 448.298C368.552 448.191 368.756 448.134 368.963 448.134C369.171 448.134 369.375 448.191 369.553 448.298C371.346 449.389 371.283 456.261 371.271 457.076L371.258 457.879ZM369.001 448.7C368.873 448.704 368.749 448.738 368.637 448.8C368.494 448.88 368.37 448.99 368.273 449.121C368.175 449.253 368.107 449.404 368.073 449.565C367.684 451.27 369.716 454.581 370.706 456.111C370.706 453.69 370.38 449.452 369.264 448.775C369.185 448.726 369.094 448.7 369.001 448.7Z" fill="#A48AFB"/>
<path d="M369.992 457.957L369.265 457.656C368.487 457.342 361.665 454.496 361.239 452.051C361.2 451.801 361.227 451.547 361.317 451.311C361.407 451.076 361.558 450.868 361.753 450.709C361.959 450.517 362.207 450.378 362.478 450.301C362.748 450.225 363.033 450.214 363.308 450.27C366.067 450.746 369.478 456.991 369.578 457.255L369.992 457.957ZM362.957 450.797C362.651 450.797 362.358 450.919 362.142 451.135C362.014 451.228 361.915 451.355 361.855 451.501C361.796 451.647 361.778 451.807 361.803 451.963C362.079 453.568 366.343 455.725 368.7 456.803C367.722 455.135 365.189 451.173 363.208 450.822L362.957 450.797Z" fill="#A48AFB"/>
<path d="M392.174 454.91L379.509 452.916C378.722 452.792 377.917 452.967 377.252 453.405C374.315 455.388 371.011 456.761 367.534 457.443C362.116 458.208 357.301 457.142 356.85 458.697C356.594 459.708 356.684 460.775 357.107 461.728C357.53 462.68 358.261 463.464 359.182 463.951C360.963 464.879 382.782 468.265 391.986 469.67C392.468 469.742 392.96 469.704 393.425 469.558C393.89 469.412 394.316 469.163 394.67 468.828C395.024 468.493 395.297 468.082 395.469 467.626C395.64 467.17 395.706 466.681 395.66 466.196L394.87 457.794C394.802 457.083 394.501 456.415 394.013 455.893C393.526 455.372 392.879 455.026 392.174 454.91Z" fill="#222221"/>
<path d="M370.982 428.476L372.964 438.909L398.796 441.367L399.561 430.808L370.982 428.476Z" fill="#A48AFB"/>
<path d="M497.095 427.797C497.447 428.424 486.211 433.954 486.211 433.954L478.762 425.765L474.862 421.464L478.825 417.702L483.966 412.849C483.966 412.849 484.493 413.451 485.358 414.404L489.923 419.546C493.308 423.383 496.92 427.483 497.095 427.797Z" fill="#B55B52"/>
<path opacity="0.2" d="M489.923 419.557L478.762 425.764L474.862 421.463L478.825 417.701L485.358 414.403L489.923 419.557Z" fill="black"/>
<path d="M482.562 438.956L481.91 438.655C481.672 438.555 476.167 436.034 475.64 433.815C475.592 433.593 475.599 433.363 475.66 433.144C475.721 432.926 475.835 432.725 475.991 432.561C476.159 432.346 476.381 432.179 476.634 432.078C476.888 431.976 477.163 431.944 477.433 431.984C479.665 432.348 481.985 437.702 482.249 438.317L482.562 438.956ZM477.233 432.511C477.081 432.514 476.933 432.553 476.798 432.622C476.663 432.692 476.546 432.791 476.455 432.912C476.355 433.014 476.283 433.141 476.246 433.279C476.209 433.417 476.207 433.563 476.242 433.702C476.543 435.106 479.653 436.912 481.446 437.815C480.581 435.959 478.8 432.799 477.383 432.523L477.233 432.511Z" fill="#A48AFB"/>
<path d="M474.311 441.59C473.182 441.708 472.049 441.419 471.114 440.775C470.876 440.537 470.712 440.236 470.638 439.907C470.565 439.579 470.586 439.236 470.7 438.919C470.788 438.531 470.967 438.17 471.222 437.864C471.477 437.559 471.801 437.319 472.167 437.164C475.44 435.684 482.751 439.408 483.064 439.571L483.691 439.897L483.014 440.098C480.179 440.925 477.26 441.426 474.311 441.59ZM474.073 437.377C473.498 437.358 472.926 437.461 472.393 437.678C472.107 437.8 471.854 437.989 471.655 438.229C471.457 438.469 471.318 438.753 471.252 439.057C471.177 439.27 471.161 439.498 471.205 439.719C471.249 439.939 471.352 440.144 471.502 440.311C473.007 441.766 479.139 440.499 482.136 439.697C480.606 439.032 476.732 437.377 474.073 437.377Z" fill="#A48AFB"/>
<path d="M496.368 427.345L485.208 433.615C484.51 434 483.986 434.637 483.741 435.396C482.671 438.772 480.931 441.899 478.624 444.587C474.863 448.562 470.423 450.719 471.038 452.212C471.46 453.163 472.192 453.945 473.113 454.429C474.035 454.914 475.093 455.074 476.117 454.883C478.085 454.506 497.296 443.597 505.385 439.007C505.809 438.764 506.172 438.428 506.446 438.024C506.721 437.619 506.899 437.158 506.968 436.674C507.037 436.19 506.995 435.697 506.844 435.232C506.693 434.767 506.439 434.343 506.099 433.991L500.268 427.884C499.768 427.378 499.115 427.051 498.41 426.953C497.705 426.856 496.987 426.993 496.368 427.345Z" fill="#222221"/>
<path d="M464.065 420.889L472.103 427.861L493.885 413.741L487.929 404.988L464.065 420.889Z" fill="#A48AFB"/>
<path d="M414.383 103.716C415.072 103.327 429.43 102.675 443.224 105.572C457.018 108.469 432.44 125.435 432.44 125.435L424.741 156.258L410.633 156.383L408.928 112.619L414.383 103.716Z" fill="#EBEBEB"/>
<path d="M443.212 105.609L413.292 152.822L416.603 103.315C416.603 103.315 405.731 103.591 402.357 104.569C398.984 105.547 396.088 113.422 393.667 124.206C391.247 134.99 387.573 160.848 387.573 160.848L370.381 305.056C370.381 305.056 429.155 317.596 456.843 307.852C456.843 307.852 446.435 178.328 448.153 170.328C449.871 162.327 455.426 133.059 455.426 133.059C455.426 133.059 463.126 118.45 459.777 114.149C456.429 109.848 443.212 105.609 443.212 105.609Z" fill="#A48AFB"/>
<path d="M407.938 196.448L412.201 310.887" stroke="white" stroke-width="0.75" stroke-linecap="round" stroke-linejoin="round"/>
<path d="M404.304 107.025L300.577 142.377L326.702 219.03L430.429 183.678L404.304 107.025Z" fill="#A48AFB"/>
<path d="M404.301 107.027L326.692 219.033L312.121 212.425L286 135.781L389.73 100.431L404.301 107.027Z" fill="#A48AFB"/>
<path opacity="0.7" d="M404.301 107.027L300.571 142.377L326.692 219.033L312.121 212.425L286 135.781L389.73 100.431L404.301 107.027Z" fill="white"/>
<path opacity="0.46" d="M404.304 107.025L300.577 142.377L326.702 219.03L430.429 183.678L404.304 107.025Z" fill="white"/>
<path d="M382.113 185.707C394.618 175.476 396.461 157.044 386.23 144.539C375.998 132.034 357.567 130.191 345.062 140.422C332.556 150.654 330.713 169.085 340.945 181.591C351.176 194.096 369.608 195.939 382.113 185.707Z" fill="#FAFAFA"/>
<path d="M381.152 152.924L369.227 156.824L365.39 145.111L356.173 148.133L360.01 159.846L346.894 164.134L349.865 173.251L362.995 168.95L366.794 180.562L376.011 177.539L372.212 165.927L384.137 162.028L381.152 152.924Z" fill="#A48AFB"/>
<path d="M416.54 42.447V24.2015C416.54 24.2015 436.516 15.2104 455.614 33.5687L446.836 51.275L416.54 42.447Z" fill="#A48AFB"/>
<path d="M435.726 26.8732L433.462 26.4263L432.094 33.3525L434.358 33.7994L435.726 26.8732Z" fill="white"/>
<path d="M430.699 28.2896L430.252 30.5532L437.178 31.9209L437.625 29.6573L430.699 28.2896Z" fill="white"/>
<path d="M445.382 76.1298C441.733 81.384 438.384 80.6567 438.384 80.6567C437.287 82.6518 435.858 84.4456 434.158 85.9611C433.557 102.351 438.384 106.777 438.384 106.777C433.368 114.514 427.174 114.301 420.904 112.044C414.634 109.787 414.308 104.871 414.308 104.871C419.976 102.087 420.051 97.7235 419.236 94.739C418.911 93.5838 418.43 92.4784 417.806 91.4535C407.16 88.5317 404.088 78.3243 404.815 68.6937C405.265 62.8524 406.698 57.1291 409.054 51.7649L415.324 42.2722L439.839 47.2882L441.156 60.2794L436.14 69.9101C444.98 63.3768 449.068 70.8129 445.382 76.1298Z" fill="#B55B52"/>
<path d="M416.54 76.0041C415.944 76.0074 415.349 75.9654 414.759 75.8787C414.703 75.8688 414.648 75.8478 414.6 75.817C414.551 75.7861 414.509 75.7459 414.475 75.6988C414.442 75.6516 414.419 75.5984 414.406 75.5421C414.394 75.4858 414.392 75.4277 414.402 75.3708C414.412 75.314 414.433 75.2597 414.464 75.211C414.495 75.1623 414.535 75.1201 414.582 75.087C414.629 75.0538 414.682 75.0302 414.739 75.0176C414.795 75.005 414.853 75.0036 414.91 75.0134C414.91 75.0134 421.18 76.1044 423.876 71.4647C423.905 71.4144 423.943 71.3704 423.989 71.335C424.035 71.2996 424.087 71.2736 424.143 71.2585C424.199 71.2434 424.257 71.2394 424.315 71.2468C424.372 71.2542 424.428 71.2728 424.478 71.3017C424.528 71.3305 424.572 71.3689 424.607 71.4147C424.643 71.4606 424.669 71.513 424.684 71.5688C424.699 71.6247 424.703 71.6831 424.696 71.7405C424.688 71.7979 424.67 71.8533 424.641 71.9036C422.572 75.4398 418.747 76.0041 416.54 76.0041Z" fill="#263238"/>
<path d="M414.822 70.2717C415.085 70.2717 416.151 62.2712 416.151 62.2712L410.458 69.118C411.045 69.6379 411.745 70.0131 412.503 70.2134C413.261 70.4138 414.055 70.4337 414.822 70.2717Z" fill="#A02724"/>
<path d="M423.638 62.4352C423.5 63.4258 422.885 64.1657 422.271 64.0779C421.657 63.9901 421.268 63.1123 421.406 62.1217C421.544 61.1311 422.158 60.3787 422.773 60.4664C423.387 60.5542 423.776 61.432 423.638 62.4352Z" fill="#263238"/>
<path d="M411.525 61.3335C411.387 62.3242 410.772 63.064 410.158 62.9762C409.543 62.8885 409.155 62.0232 409.292 61.02C409.43 60.0168 410.045 59.2895 410.659 59.3773C411.274 59.4651 411.725 60.3303 411.525 61.3335Z" fill="#263238"/>
<path d="M428.552 57.9486C428.442 57.9474 428.334 57.9149 428.24 57.855C428.147 57.7952 428.073 57.7102 428.026 57.61C426.534 54.4375 424.427 54.8513 424.339 54.8638C424.193 54.8854 424.045 54.8518 423.923 54.7695C423.801 54.6873 423.714 54.5624 423.68 54.4193C423.645 54.2763 423.665 54.1255 423.736 53.9966C423.807 53.8676 423.924 53.7699 424.063 53.7227C424.189 53.7227 427.173 53.0204 429.079 57.1084C429.113 57.1791 429.132 57.2558 429.136 57.334C429.139 57.4122 429.127 57.4904 429.101 57.5639C429.074 57.6375 429.033 57.7049 428.979 57.7624C428.926 57.8198 428.862 57.8661 428.791 57.8984C428.716 57.9323 428.635 57.9494 428.552 57.9486Z" fill="#263238"/>
<path d="M407.674 55.8372C407.6 55.8378 407.526 55.8237 407.457 55.7957C407.388 55.7678 407.325 55.7265 407.273 55.6742C407.217 55.6204 407.173 55.5561 407.143 55.485C407.113 55.4139 407.098 55.3376 407.098 55.2604C407.098 55.1832 407.113 55.1068 407.143 55.0357C407.173 54.9647 407.217 54.9003 407.273 54.8466C407.423 54.6961 410.784 51.2602 415.022 52.953C415.095 52.9808 415.161 53.0227 415.218 53.0762C415.274 53.1298 415.319 53.1939 415.351 53.265C415.382 53.3361 415.399 53.4128 415.401 53.4905C415.403 53.5682 415.389 53.6455 415.361 53.718C415.3 53.8633 415.184 53.9789 415.039 54.0398C414.893 54.1008 414.73 54.1023 414.583 54.044C411.06 52.6396 408.163 55.624 408.125 55.6617C408.068 55.7233 407.998 55.7712 407.92 55.8016C407.842 55.832 407.758 55.8442 407.674 55.8372Z" fill="#263238"/>
<path opacity="0.2" d="M423.274 90.7886C422.294 92.4038 420.917 93.7418 419.274 94.6759C418.95 93.5207 418.469 92.4154 417.845 91.3905C419.677 91.5672 421.526 91.3623 423.274 90.7886Z" fill="black"/>
<path d="M438.673 48.3894C438.673 48.3894 417.518 54.0449 409.091 51.0478C400.665 48.0508 403.612 37.6929 404.753 36.7148C406.308 35.3856 409.693 40.878 409.693 40.878C409.693 40.878 406.922 34.9968 409.091 33.7052C411.261 32.4136 411.599 41.2291 419.5 40.3012C427.4 39.3732 449.294 33.4168 450.586 47.1856C451.361 55.4344 450.028 63.7449 446.711 71.3373C446.711 71.3373 445.545 63.8134 436.228 69.7949C436.228 69.7949 433.13 67.5879 436.228 64.5533C441.62 59.2991 439.739 52.3896 438.673 48.3894Z" fill="#263238"/>
<path d="M436.428 47.2875C436.428 47.2875 432.753 59.3007 439.512 58.7239C446.271 58.147 442.121 45.6072 442.121 45.6072L436.428 47.2875Z" fill="#263238"/>
<path d="M418.66 41.0168C418.66 41.0168 414.246 37.769 415.374 35.4115C416.503 33.054 418.258 38.7471 427.049 37.7063C435.839 36.6655 446.272 35.8755 448.203 41.7065C450.135 47.5376 430.648 43.0984 430.648 43.0984L418.634 45.6817L418.66 41.0168Z" fill="#263238"/>
<path d="M417.13 184.548L408.64 182.153C408.64 182.153 398.608 181.539 397.768 185.363C396.928 189.188 396.514 195.784 400.502 196.311C404.49 196.837 416.904 196.06 416.904 196.06L417.13 184.548Z" fill="#B55B52"/>
<path d="M446.096 126.289L459.777 114.075C459.777 114.075 476.718 151.694 477.671 166.153C478.624 180.611 467.451 187.107 457.983 189.54C448.516 191.972 417.141 198.455 417.141 198.455L415.448 181C415.448 181 448.867 175.294 461.733 169.388C461.683 169.426 450.108 135.756 446.096 126.289Z" fill="#A48AFB"/>
<path opacity="0.1" d="M417.143 198.492L448.768 191.733L448.856 196.499L417.143 198.492Z" fill="black"/>
<path d="M420.929 111.982L424.528 121.487C430.245 117.278 435.507 112.482 440.228 107.179L435.011 98.4893C435.011 98.4893 430.233 107.994 420.929 111.982Z" fill="#FAFAFA"/>
<path d="M418.296 101.583C418.4 105.2 419.299 108.749 420.929 111.979L417.004 120.757C415.017 118.744 413.502 116.315 412.57 113.646C411.637 110.976 411.31 108.132 411.612 105.32L418.296 101.583Z" fill="#FAFAFA"/>
<path d="M222.211 13.8048C208.046 20.4887 206.683 39.9022 212.062 56.3C215.89 68.1453 205.842 68.7687 203.493 85.4565C202.666 91.4628 203.271 97.5796 205.258 103.308C207.246 109.036 210.56 114.212 214.93 118.415C219.299 122.618 224.601 125.728 230.402 127.491C236.203 129.255 242.339 129.621 248.308 128.561C273.304 123.936 249.106 72.2484 258.283 54.2267C267.461 36.205 237.434 6.64258 222.211 13.8048Z" fill="#263238"/>
<path d="M269.795 422.073L285.903 423.247C283.685 436.079 281.553 456.318 281.553 456.318H268.78C268.78 456.318 270.274 430.845 269.795 422.073Z" fill="#CE7A63"/>
<path d="M185.951 422.073L201.899 423.247C198.303 436.079 194.055 456.318 194.055 456.318H181.282C181.282 456.318 185.501 430.845 185.951 422.073Z" fill="#CE7A63"/>
<path d="M255.007 468.99C266.112 468.99 265.315 468.816 271.578 468.613C276.928 468.41 278.161 469.092 282.452 468.99C286.048 468.918 286.164 465.482 285.352 461.538C285.047 460.016 284.569 458.247 284.134 456.058C284.01 455.452 283.678 454.907 283.197 454.519C282.716 454.13 282.114 453.92 281.495 453.926H268.519C268.041 453.928 267.57 454.04 267.142 454.254C266.715 454.468 266.343 454.777 266.054 455.159C264.512 457.183 262.571 458.871 260.352 460.117C258.133 461.364 255.682 462.144 253.151 462.408C247.09 463.205 250.555 468.99 255.007 468.99Z" fill="#A48AFB"/>
<path d="M167.798 468.99C178.904 468.99 178.121 468.816 184.37 468.614C189.72 468.411 190.953 469.092 195.244 468.99C198.84 468.918 198.956 465.482 198.144 461.538C197.825 460.016 197.361 458.247 196.911 456.058C196.793 455.452 196.465 454.906 195.985 454.517C195.506 454.127 194.905 453.918 194.287 453.926H181.239C180.762 453.926 180.292 454.037 179.867 454.251C179.441 454.465 179.072 454.776 178.788 455.159C177.243 457.181 175.302 458.867 173.083 460.113C170.865 461.36 168.415 462.14 165.885 462.408C159.911 463.206 163.376 468.99 167.798 468.99Z" fill="#A48AFB"/>
<path d="M202.624 171.625C202.624 171.625 192.475 250.119 193.403 299.965C189.575 346.752 183.428 436.251 183.428 436.251C183.616 438.644 196.23 437.701 198.477 436.251C198.477 436.251 227.373 375.851 222.675 299.965C254.775 220.803 252.861 171.625 252.861 171.625H202.624Z" fill="#263238"/>
<path opacity="0.2" d="M243.915 235.011C241.422 245.233 238.217 256.571 234.129 268.909C232.94 244.059 226.213 210.784 225.995 209.654L243.915 235.011Z" fill="black"/>
<path d="M216.297 171.625C216.297 171.625 239.248 260.21 248.339 303.72C257.893 349.405 271.275 405.906 268.637 436.266C271.188 437.716 280.322 437.861 285.484 436.266C285.484 436.266 305.144 349.724 280.148 305.779C289.195 197.562 260.561 171.668 260.561 171.668L216.297 171.625Z" fill="#263238"/>
<path d="M267.518 429.944C267.417 432.039 267.16 434.123 266.75 436.179C266.712 436.35 266.71 436.527 266.743 436.698C266.777 436.87 266.846 437.033 266.945 437.177C267.044 437.321 267.172 437.444 267.32 437.536C267.469 437.629 267.635 437.69 267.808 437.716C273.941 438.702 282.916 437.266 285.772 436.759C286.037 436.706 286.28 436.576 286.471 436.385C286.662 436.194 286.792 435.951 286.845 435.686L287.918 429.886C287.945 429.706 287.933 429.521 287.882 429.346C287.83 429.17 287.742 429.008 287.622 428.87C287.502 428.732 287.353 428.622 287.187 428.547C287.02 428.472 286.839 428.435 286.656 428.437L268.823 428.785C268.502 428.789 268.194 428.908 267.954 429.121C267.715 429.334 267.56 429.627 267.518 429.944Z" fill="#263238"/>
<path opacity="0.1" d="M267.518 429.944C267.417 432.039 267.16 434.123 266.75 436.179C266.712 436.35 266.71 436.527 266.743 436.698C266.777 436.87 266.846 437.033 266.945 437.177C267.044 437.321 267.172 437.444 267.32 437.536C267.469 437.629 267.635 437.69 267.808 437.716C273.941 438.702 282.916 437.266 285.772 436.759C286.037 436.706 286.28 436.576 286.471 436.385C286.662 436.194 286.792 435.951 286.845 435.686L287.918 429.886C287.945 429.706 287.933 429.521 287.882 429.346C287.83 429.17 287.742 429.008 287.622 428.87C287.502 428.732 287.353 428.622 287.187 428.547C287.02 428.472 286.839 428.435 286.656 428.437L268.823 428.785C268.502 428.789 268.194 428.908 267.954 429.121C267.715 429.334 267.56 429.627 267.518 429.944Z" fill="white"/>
<path d="M182.21 429.667C182.036 431.291 181.717 434.191 181.412 436.322C181.386 436.488 181.393 436.657 181.432 436.82C181.472 436.984 181.544 437.137 181.644 437.272C181.744 437.407 181.87 437.521 182.014 437.607C182.159 437.693 182.319 437.749 182.485 437.772C188.017 438.23 193.58 438.167 199.101 437.583C199.373 437.558 199.632 437.45 199.842 437.273C200.051 437.097 200.203 436.861 200.275 436.597L201.826 430.798C201.88 430.615 201.89 430.423 201.858 430.235C201.825 430.047 201.75 429.87 201.638 429.716C201.526 429.562 201.38 429.436 201.212 429.347C201.043 429.258 200.857 429.209 200.667 429.203L183.587 428.522C183.256 428.504 182.93 428.612 182.674 428.825C182.419 429.037 182.253 429.338 182.21 429.667Z" fill="#263238"/>
<path opacity="0.1" d="M182.21 429.667C182.036 431.291 181.717 434.191 181.412 436.322C181.386 436.488 181.393 436.657 181.432 436.82C181.472 436.984 181.544 437.137 181.644 437.272C181.744 437.407 181.87 437.521 182.014 437.607C182.159 437.693 182.319 437.749 182.485 437.772C188.017 438.23 193.58 438.167 199.101 437.583C199.373 437.558 199.632 437.45 199.842 437.273C200.051 437.097 200.203 436.861 200.275 436.597L201.826 430.798C201.88 430.615 201.89 430.423 201.858 430.235C201.825 430.047 201.75 429.87 201.638 429.716C201.526 429.562 201.38 429.436 201.212 429.347C201.043 429.258 200.857 429.209 200.667 429.203L183.587 428.522C183.256 428.504 182.93 428.612 182.674 428.825C182.419 429.037 182.253 429.338 182.21 429.667Z" fill="white"/>
<path d="M124.68 111.282L127.478 114.761C127.998 115.404 128.664 115.915 129.42 116.25C130.176 116.585 131.002 116.736 131.827 116.69L139.671 116.226C141.216 116.134 142.716 115.672 144.046 114.88C145.376 114.088 146.496 112.988 147.312 111.673L148.356 110.02C144.093 103.931 135.003 100.495 135.003 100.495L132.509 99.2333C131.495 98.6871 130.307 98.565 129.203 98.8938C128.1 99.2227 127.172 99.9756 126.623 100.988L124.042 105.874C123.611 106.739 123.441 107.712 123.555 108.673C123.668 109.633 124.059 110.54 124.68 111.282Z" fill="#CE7A63"/>
<path d="M140.336 84.3397L127.033 87.1649C125.882 87.4094 125.146 88.5411 125.391 89.6925L128.849 105.974C129.093 107.125 130.225 107.86 131.376 107.616L144.679 104.79C145.831 104.546 146.566 103.414 146.321 102.263L142.863 85.9818C142.619 84.8304 141.487 84.0952 140.336 84.3397Z" fill="#A48AFB"/>
<path d="M100.075 53.2881L99 54.2612L102.494 58.1195L103.568 57.1464L100.075 53.2881Z" fill="#A48AFB"/>
<path d="M151.076 68.1001L144.919 75.2732L146.019 76.2175L152.176 69.0444L151.076 68.1001Z" fill="#A48AFB"/>
<path d="M107.209 61.1758L106.134 62.1489L121.256 78.8503L122.331 77.8772L107.209 61.1758Z" fill="#A48AFB"/>
<path d="M100.802 77.8784L100.325 79.2476L118.399 85.5414L118.876 84.1722L100.802 77.8784Z" fill="#A48AFB"/>
<path d="M137.103 81.5422L128.849 83.2952C128.339 83.4033 128.014 83.9037 128.123 84.4128L129.46 90.7097C129.568 91.2189 130.068 91.5439 130.577 91.4358L138.832 89.6828C139.341 89.5747 139.666 89.0743 139.558 88.5652L138.22 82.2683C138.112 81.7592 137.612 81.4341 137.103 81.5422Z" fill="#A48AFB"/>
<path d="M137.246 76.8064L126.779 79.0292C126.301 79.1306 125.996 79.6002 126.098 80.078L127.007 84.361C127.109 84.8388 127.578 85.1439 128.056 85.0424L138.523 82.8196C139.001 82.7181 139.306 82.2486 139.204 81.7708L138.295 77.4877C138.193 77.01 137.723 76.7049 137.246 76.8064Z" fill="#263238"/>
<path opacity="0.8" d="M143.299 87.997L128.848 91.0662L131.317 102.696L145.769 99.6264L143.299 87.997Z" fill="white"/>
<path d="M218.18 104.149C217.76 104.859 217.499 105.236 217.165 105.758L216.208 107.208L214.294 109.919C213.004 111.717 211.67 113.442 210.293 115.138C207.538 118.517 204.667 121.808 201.594 124.91C195.4 131.325 188.362 136.866 180.672 141.381C178.701 142.512 176.685 143.57 174.597 144.541L173.017 145.237L172.626 145.411L172.408 145.513L172.06 145.643C171.587 145.837 171.103 146.001 170.61 146.136C168.68 146.717 166.665 146.967 164.651 146.876C161.26 146.69 157.956 145.727 154.996 144.063C152.649 142.766 150.439 141.236 148.399 139.496C144.897 136.421 141.666 133.049 138.743 129.42C137.293 127.68 135.959 125.954 134.625 124.186C133.958 123.301 133.306 122.417 132.668 121.503C132.03 120.59 131.406 119.764 130.667 118.604L149.167 108.513C149.399 109.107 149.805 110.05 150.196 110.818C150.588 111.586 151.008 112.427 151.443 113.225C152.284 114.824 153.208 116.377 154.213 117.879C156.022 120.732 158.152 123.369 160.563 125.737C161.515 126.675 162.57 127.502 163.709 128.202C164.241 128.545 164.83 128.79 165.449 128.927H165.579L165.869 128.796L167.044 128.274C168.595 127.549 170.132 126.737 171.64 125.867C174.672 124.048 177.557 121.993 180.266 119.72C183.023 117.374 185.624 114.851 188.052 112.166C190.501 109.41 192.777 106.505 194.866 103.467C195.896 102.017 196.911 100.422 197.853 98.8711C198.332 98.0882 198.781 97.3198 199.216 96.5369L199.825 95.3915C199.999 95.0436 200.245 94.5651 200.303 94.3911L218.18 104.149Z" fill="#A48AFB"/>
<path opacity="0.7" d="M218.18 104.149C217.76 104.859 217.499 105.236 217.165 105.758L216.208 107.208L214.294 109.919C213.004 111.717 211.67 113.442 210.293 115.138C207.538 118.517 204.667 121.808 201.594 124.91C195.4 131.325 188.362 136.866 180.672 141.381C178.701 142.512 176.685 143.57 174.597 144.541L173.017 145.237L172.626 145.411L172.408 145.513L172.06 145.643C171.587 145.837 171.103 146.001 170.61 146.136C168.68 146.717 166.665 146.967 164.651 146.876C161.26 146.69 157.956 145.727 154.996 144.063C152.649 142.766 150.439 141.236 148.399 139.496C144.897 136.421 141.666 133.049 138.743 129.42C137.293 127.68 135.959 125.954 134.625 124.186C133.958 123.301 133.306 122.417 132.668 121.503C132.03 120.59 131.406 119.764 130.667 118.604L149.167 108.513C149.399 109.107 149.805 110.05 150.196 110.818C150.588 111.586 151.008 112.427 151.443 113.225C152.284 114.824 153.208 116.377 154.213 117.879C156.022 120.732 158.152 123.369 160.563 125.737C161.515 126.675 162.57 127.502 163.709 128.202C164.241 128.545 164.83 128.79 165.449 128.927H165.579L165.869 128.796L167.044 128.274C168.595 127.549 170.132 126.737 171.64 125.867C174.672 124.048 177.557 121.993 180.266 119.72C183.023 117.374 185.624 114.851 188.052 112.166C190.501 109.41 192.777 106.505 194.866 103.467C195.896 102.017 196.911 100.422 197.853 98.8711C198.332 98.0882 198.781 97.3198 199.216 96.5369L199.825 95.3915C199.999 95.0436 200.245 94.5651 200.303 94.3911L218.18 104.149Z" fill="white"/>
<path d="M197.244 105.22C196.909 113.814 197.04 122.419 197.635 130.998C198.099 142.191 200.535 153.964 203.58 172.087C209.713 175.668 240.711 174.189 260.545 171.623C259.341 155.747 261.313 137.595 272.071 101.871C274.565 93.5922 268.997 85.6325 260.124 84.7916C257.746 84.5597 255.224 84.3712 252.643 84.2552C243.586 83.6529 234.5 83.6529 225.444 84.2552C222.544 84.5161 219.412 84.8641 216.484 85.2411C205.914 86.6184 197.563 95.2886 197.244 105.22Z" fill="#A48AFB"/>
<path d="M202.508 175.903C222.506 178.111 242.688 178.072 262.677 175.787C262.878 175.741 263.068 175.654 263.233 175.53C263.397 175.405 263.534 175.247 263.632 175.066C263.731 174.885 263.79 174.685 263.806 174.479C263.821 174.273 263.792 174.067 263.721 173.873C263.228 172.713 262.735 171.568 262.271 170.408C262.17 170.154 261.99 169.94 261.757 169.796C261.525 169.653 261.253 169.588 260.981 169.61C241.756 171.727 222.357 171.727 203.132 169.61C202.956 169.588 202.778 169.602 202.609 169.652C202.439 169.701 202.282 169.785 202.146 169.898C202.01 170.01 201.898 170.15 201.819 170.307C201.739 170.465 201.692 170.637 201.682 170.814C201.551 172.017 201.435 173.206 201.319 174.409C201.299 174.585 201.314 174.764 201.363 174.934C201.412 175.105 201.494 175.264 201.604 175.403C201.714 175.541 201.851 175.657 202.006 175.743C202.161 175.828 202.332 175.883 202.508 175.903Z" fill="#A48AFB"/>
<path d="M250.73 53.6519C248.366 62.351 245.467 78.4443 251.15 84.2872C251.15 84.2872 252.875 92.8558 229.402 92.0584C211.323 91.4495 223.965 84.2872 223.965 84.2872C233.911 81.953 234.201 74.7182 232.998 67.9184L250.73 53.6519Z" fill="#CE7A63"/>
<path d="M251.774 82.9215C251.774 82.9215 241.48 92.07 238.406 114.122C232.607 156.255 241.436 328.773 241.436 328.773C241.436 328.773 279.132 316.464 292.819 304.676C293.457 292.874 270.665 184.165 272.666 152.964C274.667 121.763 278.538 94.5783 274.507 88.7064C270.477 82.8345 251.774 82.9215 251.774 82.9215Z" fill="#A48AFB"/>
<path opacity="0.7" d="M251.774 82.9215C251.774 82.9215 241.48 92.07 238.406 114.122C232.607 156.255 241.436 328.773 241.436 328.773C241.436 328.773 279.132 316.464 292.819 304.676C293.457 292.874 270.665 184.165 272.666 152.964C274.667 121.763 278.538 94.5783 274.507 88.7064C270.477 82.8345 251.774 82.9215 251.774 82.9215Z" fill="white"/>
<path d="M224.69 83.793C209.003 103.931 209.119 234.824 213.657 328.818C199.724 327.136 184.834 298.878 184.834 298.878C184.834 298.878 199.912 199.172 197.013 156.981C194.113 114.791 194.519 99.9878 201.362 92.1876C208.206 84.3874 224.69 83.793 224.69 83.793Z" fill="#A48AFB"/>
<path opacity="0.7" d="M224.69 83.793C209.003 103.931 209.119 234.824 213.657 328.818C199.724 327.136 184.834 298.878 184.834 298.878C184.834 298.878 199.912 199.172 197.013 156.981C194.113 114.791 194.519 99.9878 201.362 92.1876C208.206 84.3874 224.69 83.793 224.69 83.793Z" fill="white"/>
<path d="M250.454 82.1696C247.757 84.4893 234.868 96.0882 236.608 143.933C237.913 138.525 243.857 112.892 250.135 100.684C248.857 99.7894 247.345 99.2856 245.786 99.2343C247.48 98.3256 249.422 97.9851 251.324 98.2629C253.093 94.6963 256.718 87.2006 260.241 83.17C256.457 80.7342 250.454 82.1696 250.454 82.1696Z" fill="white"/>
<path d="M213.208 143.931C213.208 143.931 216.007 99.4638 225.228 83.6024C221.653 82.7882 217.901 83.3745 214.745 85.2408C212.817 87.5605 210.294 96.4771 210.294 98.4054C211.78 98.0363 213.348 98.2112 214.716 98.8984C213.119 99.2053 211.585 99.7787 210.178 100.595C209.569 103.741 209.279 120.545 213.208 143.931Z" fill="white"/>
<path d="M257.675 137.828H245.22C244.997 137.814 244.78 137.752 244.582 137.647C244.385 137.542 244.212 137.396 244.075 137.219C243.937 137.043 243.839 136.839 243.787 136.621C243.735 136.404 243.729 136.178 243.771 135.958L244.278 130.043C244.297 129.568 244.486 129.116 244.811 128.77C245.136 128.424 245.575 128.206 246.047 128.158H258.501C258.725 128.174 258.943 128.238 259.14 128.344C259.338 128.451 259.511 128.598 259.648 128.776C259.784 128.954 259.882 129.159 259.935 129.377C259.987 129.595 259.992 129.822 259.951 130.043L259.429 135.958C259.411 136.429 259.223 136.877 258.901 137.22C258.579 137.564 258.143 137.78 257.675 137.828Z" fill="white"/>
<path opacity="0.1" d="M250.381 137.828H246.988L249.598 128.158H252.991L250.381 137.828Z" fill="#A48AFB"/>
<path opacity="0.1" d="M255.095 137.828H251.717L254.327 128.158H257.705L255.095 137.828Z" fill="#A48AFB"/>
<path d="M251.992 129.172C251.383 129.172 250.933 128.824 251.006 128.375L251.397 125.664C251.479 125.412 251.644 125.195 251.865 125.05C252.087 124.905 252.352 124.84 252.615 124.866C253.224 124.866 253.673 125.214 253.615 125.664L253.224 128.375C253.137 128.627 252.969 128.842 252.746 128.986C252.522 129.131 252.257 129.196 251.992 129.172Z" fill="#A48AFB"/>
<path opacity="0.2" d="M243.495 59.4629L232.983 67.901C233.285 69.4931 233.445 71.1087 233.462 72.729C237.231 72.1926 242.654 68.104 243.35 64.1894C243.679 62.6351 243.728 61.0345 243.495 59.4629Z" fill="black"/>
<path d="M258.211 36.0762C255.558 50.2123 254.732 56.2437 246.612 63.0145C234.477 73.1635 217.804 67.828 216.165 53.4165C214.716 40.4403 219.312 19.5044 233.883 14.8359C236.982 13.7032 240.329 13.4235 243.574 14.0263C246.818 14.629 249.842 16.092 252.327 18.2624C254.813 20.4328 256.671 23.231 257.706 26.3645C258.741 29.4981 258.915 32.8522 258.211 36.0762Z" fill="#CE7A63"/>
<path d="M232.968 47.749C229.256 47.749 226.154 43.9794 226.009 39.2384C225.922 37.0391 226.553 34.8714 227.807 33.062C228.342 32.2636 229.055 31.6006 229.891 31.125C230.726 30.6495 231.66 30.3745 232.62 30.3218H232.78C236.491 30.3218 239.594 34.1059 239.739 38.8324C239.869 43.6314 236.839 47.633 233.128 47.749H232.968ZM232.78 31.0467H232.635C231.789 31.0977 230.966 31.3442 230.231 31.7669C229.497 32.1895 228.87 32.7768 228.401 33.4825C227.212 35.1744 226.624 37.2166 226.734 39.2819C226.864 43.6314 229.778 47.1691 233.113 47.0821C236.448 46.9951 239.144 43.3124 239.014 38.9194C238.883 34.5118 236.158 31.0467 232.78 31.0467Z" fill="white"/>
<path d="M226.387 38.8313C226.308 38.8313 226.232 38.8059 226.169 38.7588C226.169 38.7588 225.067 37.9469 224.516 38.5269C224.486 38.5691 224.448 38.6044 224.403 38.6305C224.358 38.6565 224.308 38.6725 224.256 38.6776C224.205 38.6827 224.153 38.6766 224.104 38.6599C224.055 38.6431 224.01 38.616 223.972 38.5804C223.934 38.5448 223.905 38.5016 223.885 38.4535C223.866 38.4055 223.857 38.3539 223.859 38.3021C223.861 38.2503 223.874 38.1995 223.897 38.1533C223.921 38.107 223.954 38.0663 223.994 38.0339C224.777 37.193 225.995 37.7294 226.604 38.1789C226.681 38.2366 226.732 38.3224 226.745 38.4176C226.759 38.5128 226.734 38.6094 226.677 38.6863C226.641 38.7291 226.597 38.7641 226.547 38.789C226.497 38.814 226.442 38.8284 226.387 38.8313Z" fill="white"/>
<path d="M217.862 46.4166C214.15 46.4166 211.048 42.647 210.903 37.9205C210.758 33.194 213.715 29.1199 217.499 29.0039H217.659C221.371 29.0039 224.473 32.7735 224.618 37.5145C224.763 42.2555 221.805 46.3151 218.021 46.4166H217.862ZM217.659 29.7288H217.528C214.136 29.8303 211.497 33.4839 211.627 37.8915C211.758 42.299 214.527 45.6917 217.862 45.6917H217.992C221.385 45.5902 224.024 41.9366 223.893 37.529C223.763 33.1215 220.979 29.7288 217.659 29.7288Z" fill="white"/>
<path d="M248.338 22.8989C242.538 35.8025 252.18 41.7469 253.615 45.8065C255.63 56.9994 230.127 79.2256 237.667 114.037C248.657 94.5795 263.764 95.5074 265.402 82.4153C267.041 68.9317 260.284 62.1173 267.461 49.2282C274.638 36.339 277.175 21.0141 264.561 18.6218C251.948 16.2295 248.338 22.8989 248.338 22.8989Z" fill="#263238"/>
<path d="M255.978 98.0153C255.926 98.0176 255.875 98.0084 255.827 97.9884C255.779 97.9683 255.737 97.9379 255.702 97.8993C255.636 97.8315 255.599 97.7404 255.599 97.6456C255.599 97.5507 255.636 97.4596 255.702 97.3918C263.024 90.7515 263.575 82.0814 264.169 72.8894C264.561 66.8725 264.967 60.6381 267.359 54.7807C271.564 44.4868 275.058 30.0172 271.027 23.1594C270.452 22.1404 269.638 21.2759 268.656 20.6396C267.674 20.0034 266.552 19.6144 265.387 19.5058C265.292 19.4914 265.207 19.4414 265.147 19.366C265.088 19.2906 265.06 19.1954 265.068 19.0999C265.072 19.0513 265.085 19.004 265.108 18.961C265.131 18.918 265.162 18.8803 265.2 18.8502C265.239 18.8202 265.283 18.7985 265.33 18.7865C265.377 18.7746 265.426 18.7727 265.474 18.7809C266.751 18.8967 267.981 19.3216 269.057 20.0187C270.133 20.7159 271.023 21.6644 271.651 22.7825C275.812 29.8723 272.506 44.1098 268.026 55.0562C265.677 60.8556 265.286 66.974 264.894 72.9328C264.3 82.2699 263.734 91.085 256.195 97.9283C256.133 97.9788 256.057 98.0092 255.978 98.0153Z" fill="#263238"/>
<path d="M251.643 24.4637C242.089 25.5511 225.198 24.4637 221.312 19.5052C217.427 14.5467 222.487 2.10697 233.723 0.149673C242.857 -1.41617 248.338 9.82018 248.338 9.82018C248.338 9.82018 257.037 5.47063 264.619 15.4311C271.535 24.4637 256.457 34.6996 251.643 24.4637Z" fill="#263238"/>
<path d="M255.239 42.9462L239.218 40.1915C239.171 40.1847 239.125 40.1681 239.085 40.1428C239.044 40.1175 239.009 40.0841 238.981 40.0446C238.954 40.0052 238.935 39.9605 238.926 39.9134C238.917 39.8663 238.918 39.8179 238.928 39.7711C238.946 39.677 239 39.5937 239.079 39.5394C239.158 39.4851 239.255 39.4641 239.349 39.4811L255.297 42.2358C255.379 42.2524 255.453 42.2969 255.506 42.3616C255.559 42.4264 255.587 42.5074 255.587 42.591C255.587 42.6746 255.559 42.7557 255.506 42.8204C255.453 42.8851 255.379 42.9296 255.297 42.9462H255.239Z" fill="white"/>
<path d="M235.825 38.4414C235.651 39.6303 234.883 40.5582 234.129 40.5002C233.375 40.4422 232.882 39.4273 233.042 38.2384C233.201 37.0495 233.984 36.1071 234.738 36.1651C235.492 36.2231 235.985 37.238 235.825 38.4414Z" fill="#263238"/>
<path d="M221.385 37.5849C221.211 38.7738 220.457 39.7017 219.689 39.6437C218.92 39.5857 218.442 38.5708 218.616 37.3819C218.79 36.1931 219.544 35.2651 220.312 35.3231C221.081 35.3811 221.559 36.3815 221.385 37.5849Z" fill="#263238"/>
<path d="M220.63 35.4111L217.934 34.3672C217.934 34.3672 219.064 36.7304 220.63 35.4111Z" fill="#263238"/>
<path d="M225.111 39.8452C223.674 42.4995 221.906 44.9599 219.848 47.167C221.182 48.7473 223.907 48.2688 223.907 48.2688L225.111 39.8452Z" fill="#BA4D3C"/>
<path d="M230.012 53.1862C229.351 53.252 228.686 53.252 228.025 53.1862C227.98 53.1826 227.936 53.1699 227.896 53.1487C227.856 53.1276 227.82 53.0985 227.792 53.0632C227.763 53.0279 227.742 52.9872 227.73 52.9435C227.718 52.8999 227.715 52.8541 227.721 52.8092C227.735 52.7144 227.785 52.6286 227.861 52.5693C227.936 52.51 228.031 52.4818 228.127 52.4902C229.625 52.604 231.129 52.3804 232.529 51.8359C233.929 51.2914 235.189 50.4399 236.217 49.3441C236.249 49.3116 236.288 49.2859 236.33 49.2683C236.372 49.2507 236.418 49.2417 236.463 49.2417C236.509 49.2417 236.555 49.2507 236.597 49.2683C236.639 49.2859 236.678 49.3116 236.71 49.3441C236.742 49.3764 236.768 49.4148 236.786 49.4571C236.803 49.4994 236.812 49.5447 236.812 49.5905C236.812 49.6363 236.803 49.6817 236.786 49.724C236.768 49.7663 236.742 49.8047 236.71 49.837C234.967 51.7423 232.581 52.9353 230.012 53.1862Z" fill="#263238"/>
<path d="M257.37 50.3848C256.643 51.5541 255.679 52.5581 254.54 53.3323C253.401 54.1064 252.113 54.6334 250.759 54.8793C247.395 55.3433 246.409 51.4287 247.975 47.8186C249.425 44.5709 252.803 40.4243 255.891 41.6277C258.979 42.8311 259.356 47.2966 257.37 50.3848Z" fill="#CE7A63"/>
<path d="M240.509 33.1068C240.421 33.0902 240.337 33.0543 240.264 33.0016C240.192 32.949 240.132 32.881 240.088 32.8024C239.689 32.0451 239.108 31.3993 238.397 30.9234C237.685 30.4474 236.866 30.1564 236.014 30.0766C235.924 30.0772 235.835 30.0587 235.752 30.0222C235.669 29.9857 235.596 29.9321 235.535 29.8649C235.475 29.7978 235.43 29.7186 235.402 29.6327C235.375 29.5467 235.366 29.4559 235.376 29.3662C235.394 29.1766 235.484 29.0008 235.626 28.8744C235.769 28.748 235.954 28.6802 236.145 28.6848C237.226 28.7662 238.269 29.12 239.176 29.7132C240.084 30.3065 240.827 31.1198 241.335 32.0774C241.417 32.2432 241.431 32.4345 241.374 32.6104C241.317 32.7864 241.194 32.9333 241.031 33.0198C240.954 33.0692 240.868 33.1024 240.779 33.1173C240.689 33.1323 240.597 33.1287 240.509 33.1068Z" fill="#263238"/>
<path d="M218.644 28.2787C218.507 28.2929 218.37 28.2637 218.251 28.1951C218.132 28.1266 218.037 28.0222 217.981 27.8969C217.925 27.7715 217.91 27.6316 217.937 27.4971C217.965 27.3626 218.035 27.2404 218.137 27.1478C218.859 26.273 219.775 25.5771 220.811 25.1143C221.847 24.6516 222.976 24.4345 224.11 24.4801C224.199 24.4905 224.285 24.519 224.362 24.564C224.439 24.6089 224.507 24.6693 224.56 24.7414C224.613 24.8135 224.65 24.8957 224.67 24.9829C224.69 25.0701 224.692 25.1605 224.675 25.2485C224.643 25.4355 224.542 25.6036 224.391 25.7191C224.241 25.8347 224.052 25.8892 223.863 25.8719C222.965 25.8496 222.074 26.0326 221.258 26.407C220.441 26.7813 219.721 27.3372 219.151 28.0322C219.02 28.1757 218.838 28.2638 218.644 28.2787Z" fill="#263238"/>
<path d="M235.071 36.267L232.374 35.2231C232.374 35.2231 233.505 37.5719 235.071 36.267Z" fill="#263238"/>
<path d="M258.864 187.063L259.893 182.713C260.081 181.907 260.46 181.157 260.997 180.526C261.534 179.895 262.215 179.403 262.981 179.089L270.23 176.117C271.663 175.532 273.215 175.299 274.757 175.438C276.298 175.577 277.784 176.083 279.089 176.914L280.742 177.958C279.524 185.28 272.811 192.311 272.811 192.311L271.129 194.53C270.794 194.994 270.371 195.388 269.883 195.689C269.395 195.989 268.852 196.191 268.287 196.281C267.721 196.371 267.143 196.349 266.585 196.215C266.028 196.081 265.503 195.838 265.04 195.501L260.618 192.21C259.859 191.614 259.289 190.81 258.978 189.897C258.666 188.983 258.627 187.999 258.864 187.063Z" fill="#CE7A63"/>
<path d="M272.97 87.6875C273.739 88.1804 274.174 88.4994 274.725 88.9054L276.261 90.0507C277.262 90.8192 278.248 91.5006 279.161 92.356C281.094 93.9025 282.964 95.507 284.772 97.1695C288.431 100.476 291.902 103.985 295.167 107.681C298.476 111.434 301.51 115.422 304.243 119.613C305.606 121.744 306.926 123.963 308.086 126.196C309.305 128.47 310.403 130.808 311.377 133.198L312.087 135.011L312.174 135.243L312.334 135.692L312.609 136.576C312.754 137.171 312.899 137.765 312.986 138.345C313.323 140.424 313.323 142.544 312.986 144.623C312.426 147.781 311.379 150.833 309.883 153.67C307.434 158.272 304.519 162.61 301.184 166.617C298.125 170.489 294.906 174.055 291.644 177.549C290.006 179.289 288.382 181.029 286.7 182.725L284.163 185.262C283.279 186.118 282.496 186.93 281.495 187.872L268.055 171.648C268.795 171.141 269.723 170.46 270.549 169.822L273.072 167.821C274.739 166.472 276.406 165.11 278.001 163.66C281.156 160.857 284.153 157.88 286.976 154.743C289.584 151.894 291.864 148.762 293.776 145.406C294.428 144.247 294.916 143.003 295.225 141.709C295.225 141.332 295.225 141.158 295.225 141.245C295.221 141.274 295.221 141.303 295.225 141.332C295.219 141.361 295.219 141.39 295.225 141.419V141.26L294.689 139.911C291.546 132.537 287.051 125.815 281.437 120.092C278.59 117.098 275.527 114.316 272.274 111.77C270.65 110.494 268.969 109.276 267.287 108.116C266.431 107.536 265.59 106.956 264.735 106.434L263.459 105.68L262.343 105.057L272.97 87.6875Z" fill="#A48AFB"/>
<path opacity="0.7" d="M272.97 87.6875C273.739 88.1804 274.174 88.4994 274.725 88.9054L276.261 90.0507C277.262 90.8192 278.248 91.5006 279.161 92.356C281.094 93.9025 282.964 95.507 284.772 97.1695C288.431 100.476 291.902 103.985 295.167 107.681C298.476 111.434 301.51 115.422 304.243 119.613C305.606 121.744 306.926 123.963 308.086 126.196C309.305 128.47 310.403 130.808 311.377 133.198L312.087 135.011L312.174 135.243L312.334 135.692L312.609 136.576C312.754 137.171 312.899 137.765 312.986 138.345C313.323 140.424 313.323 142.544 312.986 144.623C312.426 147.781 311.379 150.833 309.883 153.67C307.434 158.272 304.519 162.61 301.184 166.617C298.125 170.489 294.906 174.055 291.644 177.549C290.006 179.289 288.382 181.029 286.7 182.725L284.163 185.262C283.279 186.118 282.496 186.93 281.495 187.872L268.055 171.648C268.795 171.141 269.723 170.46 270.549 169.822L273.072 167.821C274.739 166.472 276.406 165.11 278.001 163.66C281.156 160.857 284.153 157.88 286.976 154.743C289.584 151.894 291.864 148.762 293.776 145.406C294.428 144.247 294.916 143.003 295.225 141.709C295.225 141.332 295.225 141.158 295.225 141.245C295.221 141.274 295.221 141.303 295.225 141.332C295.219 141.361 295.219 141.39 295.225 141.419V141.26L294.689 139.911C291.546 132.537 287.051 125.815 281.437 120.092C278.59 117.098 275.527 114.316 272.274 111.77C270.65 110.494 268.969 109.276 267.287 108.116C266.431 107.536 265.59 106.956 264.735 106.434L263.459 105.68L262.343 105.057L272.97 87.6875Z" fill="white"/>
</svg>
